# xmcd
#
# Track frame offsets: 
#        150
#        27044
#        56531
#        91606
#        112569
#        138783
#        161624
#        185714
#        215629
#        246451
#        269106
#        297505
#        324920
#
# Disc length: 4679 seconds
#
# Revision: 2
# Processed by: cddbd v1.5.2PL0 Copyright (c) Steve Scherf et al.
# Submitted via: ExactAudioCopy v0.99pb5
#
DISCID=b812450d
DTITLE=Various Artist - Gary D. - pres. D.Trance 29 - (0-2005) - by Gary D.,E
DTITLE=B.Stamer and Daniel Bruns (3CD-35T.-05) (13T.-CD3-Turntable Mix 
DTITLE=by Gary D.)
DYEAR=2005
DGENRE=Hard-Trance
TTITLE0=Reuter and Schleiss - Passion
TTITLE1=Earth Inc. - Realize
TTITLE2=Lagoon - Cosmic Ray
TTITLE3=Dogzilla - Your Eyes
TTITLE4=Sol 7 - In Energy We Trust
TTITLE5=Roland Van Gelderen - Cold Storage
TTITLE6=Sunport - Abuse
TTITLE7=Talla 2XLC feat. Ely - The Air That I Breath
TTITLE8=Scot Project - L (Want Your Love)
TTITLE9=Showtek - Choruz
TTITLE10=Atlantic Wave - Kataklisma
TTITLE11=Babylon feat. Riny - Superfresh
TTITLE12=Rank 1 - Beatz @ Rank 1 Dot Com
EXTD=YEAR: 2005
EXTT0=
EXTT1=
EXTT2=
EXTT3=
EXTT4=
EXTT5=
EXTT6=
EXTT7=
EXTT8=
EXTT9=
EXTT10=
EXTT11=
EXTT12=
PLAYORDER=
